<?xml version="1.0" encoding="utf-8"?>
<!-- Generator: Adobe Illustrator 16.0.0, SVG Export Plug-In . SVG Version: 6.00 Build 0)  -->
<!DOCTYPE svg PUBLIC "-//W3C//DTD SVG 1.1//EN" "http://www.w3.org/Graphics/SVG/1.1/DTD/svg11.dtd">
<svg version="1.1" id="Layer_1" xmlns="http://www.w3.org/2000/svg" xmlns:xlink="http://www.w3.org/1999/xlink" x="0px" y="0px"
	 width="281.972px" height="103.844px" viewBox="0 0 281.972 103.844" enable-background="new 0 0 281.972 103.844"
	 xml:space="preserve">
<g opacity="0.4">
	<polygon fill="#FFFFFF" points="285.673,103.844 285.673,47.94 262.509,47.94 262.509,44.443 260.621,44.443 260.621,43.632 
		249.298,43.632 249.298,40.667 248.755,40.667 248.755,43.632 243.632,43.632 243.632,44.443 239.587,44.443 239.587,103.844 	"/>
	<rect x="285.671" y="164.216" fill="#FFFFFF" width="0.002" height="10.68"/>
	<path fill="#FFFFFF" d="M5.509,103.844h21.036v-0.476h25.819v0.476h3.396l0.474-0.476h1.861v0.476h21.576v-0.476h11.057v0.476
		h14.292v-0.476h9.438v0.476h14.832v-0.476h28.047v0.476h19.148v-0.476h1.695l0.475,0.476h3.393v-0.476h11.156v0.476h41.953V78.649
		h-14.498v18.359l-1.789-1.451l-0.197-0.168h-6.053V77.882h-19.416V95.39h-16.719V81.927h-19.148v11.834
		c-17.389-7.336-33.178-15.752-47.424-25.173C94.686,58.516,81.216,47.273,69.42,34.904v-2.112h-2.465v1.644H54.83v-1.644h-2.466
		v2.112c-11.794,12.369-25.267,23.612-40.49,33.684C8.027,71.129,4.071,73.594,0,75.988v1.628c4.341-2.546,8.557-5.167,12.644-7.864
		c14.882-9.844,28.096-20.814,39.72-32.836v12.283C40.58,60.443,27.123,70.395,11.916,79.011C8.056,81.216,4.083,83.313,0,85.323
		v1.555c4.327-2.127,8.527-4.338,12.603-6.639c14.896-8.452,28.125-18.179,39.761-29.118V95.39H26.544v-9.148H5.509v9.148H0v1.398
		h3.844v5.182H0v1.398h5.509V103.844z M218.068,96.788h0.111l2.479,2.029v3.152h-2.59V96.788z M212.619,96.788h4.355v5.182h-4.355
		V96.788z M190.021,96.788h3.182v5.182h-3.182V96.788z M184.414,96.788h4.514v5.182h-4.514V96.788z M178.806,96.788h4.514v5.182
		h-4.514V96.788z M176.484,96.788h1.229v5.182h-1.229V96.788z M82.367,101.97h-2.698v-5.182h2.698V101.97z M87.977,101.97H83.46
		v-5.182h4.517V101.97z M90.727,101.97h-1.66v-5.182h1.66V101.97z M110.41,101.97h-4.514v-5.182h4.514V101.97z M114.457,101.97
		h-2.953v-5.182h2.953V101.97z M132.843,101.97h-3.555v-5.182h3.555V101.97z M138.451,101.97h-4.514v-5.182h4.514V101.97z
		 M144.06,101.97h-4.516v-5.182h4.516V101.97z M149.671,101.97h-4.518v-5.182h4.518V101.97z M155.281,101.97h-4.516v-5.182h4.516
		V101.97z M157.335,101.97h-0.963v-5.182h0.963V101.97z M69.42,36.916c11.625,12.022,24.841,22.993,39.72,32.836
		c14.467,9.571,30.51,18.093,48.195,25.519v0.119h-12.301c-12.631-4.762-24.34-10.244-35.162-16.379
		C94.664,70.395,81.208,60.443,69.42,49.199V36.916z M69.42,51.122c11.636,10.939,24.865,20.666,39.761,29.118
		c9.914,5.607,20.564,10.674,31.977,15.15h-11.869v-0.787h-14.832v0.787h-9.438V78.69H90.727V95.39H79.669v-7.26H69.42V51.122z
		 M58.094,101.97H57.63l0.463-0.465V101.97z M58.094,88.13v5.801l-2.925-2.92l5.724-5.723h0.001l2.843,2.842H58.094z M60.894,58.434
		l5.724,5.734l-5.724,5.711h-0.001l-5.724-5.711l5.724-5.734H60.894z M55.168,50.725l5.724-5.711h0.001l5.724,5.711l-5.724,5.734
		h-0.001L55.168,50.725z M60.894,71.863l5.724,5.72l-5.724,5.73h-0.001l-5.724-5.73l5.724-5.72H60.894z M66.955,88.13h-1.241
		l-3.835-3.842l5.076-5.061V88.13z M66.955,75.943l-5.076-5.074l5.076-5.078V75.943z M66.955,62.529l-5.076-5.084l5.076-5.068
		V62.529z M66.955,49.095l-5.076-5.072l5.076-5.069V49.095z M55.576,36.902h10.632l0.41,0.397l-5.724,5.729h-0.001l-5.724-5.729
		L55.576,36.902z M54.83,38.954l5.076,5.069l-5.076,5.072V38.954z M54.83,52.377l5.076,5.068l-5.076,5.084V52.377z M54.83,65.791
		l5.076,5.078l-5.076,5.08V65.791z M54.83,79.228l5.076,5.061l-5.076,5.086V79.228z M54.83,92.638l2.749,2.752H54.83V92.638z
		 M54.83,96.788h3.264v2.736l-2.44,2.445H54.83V96.788z M49.807,96.788h2.556v5.182h-2.556V96.788z M44.199,96.788h4.516v5.182
		h-4.516V96.788z M38.591,96.788h4.516v5.182h-4.516V96.788z M32.981,96.788h4.518v5.182h-4.518V96.788z M27.372,96.788h4.518v5.182
		h-4.518V96.788z M5.508,101.97H4.94v-5.182h0.568V101.97z"/>
</g>
</svg>
