<?xml version="1.0" encoding="utf-8"?>
<!-- Generator: Adobe Illustrator 16.0.0, SVG Export Plug-In . SVG Version: 6.00 Build 0)  -->
<!DOCTYPE svg PUBLIC "-//W3C//DTD SVG 1.1//EN" "http://www.w3.org/Graphics/SVG/1.1/DTD/svg11.dtd">
<svg version="1.1" id="Layer_1" xmlns="http://www.w3.org/2000/svg" xmlns:xlink="http://www.w3.org/1999/xlink" x="0px" y="0px"
	 width="281.972px" height="103.844px" viewBox="0 0 281.972 103.844" enable-background="new 0 0 281.972 103.844"
	 xml:space="preserve">
<g opacity="0.4">
	<path fill="#FFFFFF" d="M230.79,102.95c-0.175-1.643-0.812-1.887-0.812-1.887l-0.311-3.437c-0.003-1.046-0.902-1.791-0.902-1.791
		c-0.002-0.597-1.055-2.538-1.055-2.538l-2.406-4.477l-0.748-0.146l-0.465-5.082l-0.135,4.783l-1.194,0.453l-2.825,4.644
		c-0.598,0.001-1.039,2.396-1.039,2.396c-0.598,0.002-0.892,1.35-0.892,1.35l-0.136,4.037c-0.24,0.241-0.381,0.943-0.465,1.695
		H230.79z"/>
	<polygon fill="#FFFFFF" points="244.038,102.95 282.009,102.95 281.996,98.8 279.455,98.809 279.462,101.501 278.417,101.503 
		278.404,97.767 276.759,97.622 276.75,94.483 266.285,94.517 266.275,91.976 258.654,92.599 252.525,92.617 252.531,94.712 
		244.011,94.74 	"/>
	<polygon fill="#FFFFFF" points="0.562,102.95 66.068,102.95 66.02,77.03 57.172,77.06 57.082,49.608 53.705,49.619 53.692,45.733 
		52.646,45.735 52.638,43.344 51.89,43.347 51.883,41.104 47.847,41.117 47.844,40.22 15.104,40.327 15.276,92.5 8.112,92.771 
		8.135,100.062 0.553,100.086 	"/>
	<path fill="#FFFFFF" d="M70.329,102.95h72.718l-0.123-62.146l-2.093,0.008l-0.086-26.161l-3.588,0.012l-0.044-13.456
		c-9.427-2.66-16.146-0.097-16.146-0.097l0.046,14.203l-3.587,0.012l0.08,24.816l-1.045,0.004l0.012,3.437l-7.924,0.026
		l-0.033-10.016l-33.637,0.11l0.032,9.872l0.173-0.002l0.11,33.426l-4.916,0.017L70.329,102.95z"/>
	<polygon fill="#FFFFFF" points="149.945,102.95 213.37,102.95 213.19,48.199 211.417,48.204 211.396,41.925 181.587,42.023 
		181.778,100.296 177.517,100.312 177.265,23.285 166.037,22.94 154.677,23.874 154.69,27.61 153.121,27.616 153.277,75.081 
		149.925,78.454 	"/>
</g>
</svg>
