<?xml version="1.0" encoding="utf-8"?>
<!-- Generator: Adobe Illustrator 16.0.0, SVG Export Plug-In . SVG Version: 6.00 Build 0)  -->
<!DOCTYPE svg PUBLIC "-//W3C//DTD SVG 1.1//EN" "http://www.w3.org/Graphics/SVG/1.1/DTD/svg11.dtd">
<svg version="1.1" id="Layer_1" xmlns="http://www.w3.org/2000/svg" xmlns:xlink="http://www.w3.org/1999/xlink" x="0px" y="0px"
	 width="281.972px" height="103.844px" viewBox="0 0 281.972 103.844" enable-background="new 0 0 281.972 103.844"
	 xml:space="preserve">
<g opacity="0.4">
	<polygon fill="#FFFFFF" points="277.625,102.221 277.625,96.652 272.478,96.652 272.478,40.965 266.91,40.965 266.91,25.65 
		260.644,25.65 260.644,17.993 252.291,17.993 252.291,11.655 239.761,11.655 239.761,22.865 232.8,22.865 232.8,34.699 
		228.623,34.699 228.623,75.732 220.966,75.732 220.966,68.111 211.22,68.111 211.22,79.249 200.083,79.249 200.083,47.229 
		195.908,43.052 195.908,28.434 172.937,28.434 172.937,38.875 161.101,38.875 161.101,59.758 155.533,59.758 155.533,55.582 
		148.572,55.582 144.396,59.758 142.587,61.566 142.587,102.221 	"/>
	<polygon fill="#FFFFFF" points="74.787,102.221 74.787,95.955 67.13,95.955 67.13,80.642 63.997,77.51 63.997,69.504 
		51.119,69.504 51.119,91.082 33.717,91.082 33.717,102.221 	"/>
	<path fill="#FFFFFF" d="M99.041,95.955h-1.283v6.266h36.893V61.848h-6.961v-4.874H117.25v7.657h-9.746v12.422h-5.459v-5.461h-3.004
		v5.461H85.924v3.002h13.117V95.955z M102.044,80.055h5.459v4.066h-4.873v11.834h-0.586V80.055z"/>
</g>
</svg>
