<?xml version="1.0" encoding="utf-8"?>
<!-- Generator: Adobe Illustrator 16.0.0, SVG Export Plug-In . SVG Version: 6.00 Build 0)  -->
<!DOCTYPE svg PUBLIC "-//W3C//DTD SVG 1.1//EN" "http://www.w3.org/Graphics/SVG/1.1/DTD/svg11.dtd">
<svg version="1.1" id="Layer_1" xmlns="http://www.w3.org/2000/svg" xmlns:xlink="http://www.w3.org/1999/xlink" x="0px" y="0px"
	 width="281.972px" height="103.844px" viewBox="0 0 281.972 103.844" enable-background="new 0 0 281.972 103.844"
	 xml:space="preserve">
<g opacity="0.4">
	<rect x="-3.701" y="129.569" fill="#FFFFFF" width="0.001" height="22.377"/>
	<polygon fill="#FFFFFF" points="280.013,74.371 280.013,75.966 273.105,75.966 273.105,42.901 258.902,42.901 258.902,46.868 
		248.634,46.868 248.634,103.46 240.431,103.46 240.431,51.476 238.863,51.476 238.863,39.457 237.589,39.457 231.945,13.493 
		230.66,13.493 230.66,0 229.523,0 229.523,13.613 228.447,13.613 223.962,39.523 222.248,39.523 222.248,51.409 219.675,51.409 
		219.675,103.207 213.302,103.207 213.302,64.291 204.742,64.291 204.742,60.449 196.464,60.449 196.464,63.771 180.207,63.771 
		180.207,115.826 176.785,115.967 176.785,101.201 145.976,89.35 145.976,111.359 143.689,111.359 143.689,69.653 137.13,69.653 
		137.13,64.024 130.275,64.024 130.275,68.891 119.736,68.891 119.736,113.908 93.201,113.908 93.201,69.653 84.64,69.653 
		84.64,66.087 79.783,66.087 79.783,71.193 64.676,71.193 64.676,107.183 44.169,107.183 44.169,99.982 28.109,99.982 
		28.109,115.979 281.97,115.979 281.97,151.946 281.972,151.946 281.972,74.371 	"/>
</g>
</svg>
