<?xml version="1.0" encoding="utf-8"?>
<!-- Generator: Adobe Illustrator 16.0.0, SVG Export Plug-In . SVG Version: 6.00 Build 0)  -->
<!DOCTYPE svg PUBLIC "-//W3C//DTD SVG 1.1//EN" "http://www.w3.org/Graphics/SVG/1.1/DTD/svg11.dtd">
<svg version="1.1" id="Layer_1" xmlns="http://www.w3.org/2000/svg" xmlns:xlink="http://www.w3.org/1999/xlink" x="0px" y="0px"
	 width="281.972px" height="101.892px" viewBox="0 0 281.972 101.892" enable-background="new 0 0 281.972 101.892"
	 xml:space="preserve">
<polygon opacity="0.4" fill="#FFFFFF" points="264.179,79.295 264.179,99.427 254.318,99.427 254.318,76.009 247.333,76.009 
	247.333,69.641 221.861,69.641 221.861,85.458 216.521,85.458 216.521,69.641 186.529,69.641 186.529,85.458 181.187,85.458 
	181.187,92.854 173.792,92.854 173.792,87.513 166.806,87.513 166.806,81.76 155.302,81.76 155.302,87.103 150.886,87.103 
	150.886,70.359 148.318,67.792 148.318,57.931 136.812,57.931 136.812,68.202 133.115,68.202 133.115,96.963 128.185,96.963 
	128.185,92.854 115.037,92.854 115.037,101.071 108.875,101.071 108.875,65.737 105.177,65.737 105.177,41.085 101.89,41.085 
	101.89,22.186 99.425,22.186 99.425,12.325 96.548,12.325 96.548,0 92.851,0 92.851,12.736 90.386,12.736 90.386,24.651 
	87.921,24.651 87.921,40.263 84.634,40.263 84.634,64.505 79.705,64.505 79.705,95.936 72.31,95.936 72.31,78.474 69.021,78.474 
	69.021,57.931 65.324,57.931 65.324,52.59 56.285,52.59 56.285,57.931 52.587,57.931 52.587,81.35 44.37,81.35 44.37,92.032 
	36.564,92.032 36.564,81.35 22.595,81.35 22.595,90.8 0,90.8 0,101.892 281.972,101.892 281.972,79.295 "/>
</svg>
