<?xml version="1.0" encoding="utf-8"?>
<!-- Generator: Adobe Illustrator 16.0.0, SVG Export Plug-In . SVG Version: 6.00 Build 0)  -->
<!DOCTYPE svg PUBLIC "-//W3C//DTD SVG 1.1//EN" "http://www.w3.org/Graphics/SVG/1.1/DTD/svg11.dtd">
<svg version="1.1" id="Layer_1" xmlns="http://www.w3.org/2000/svg" xmlns:xlink="http://www.w3.org/1999/xlink" x="0px" y="0px"
	 width="34.613px" height="39.602px" viewBox="0 0 34.613 39.602" enable-background="new 0 0 34.613 39.602" xml:space="preserve">
<path fill="#494949" d="M34.013,28.041l-4.275-2.469l3.609-2.152c0.582-0.278,0.762-1.06,0.432-1.631
	c-0.336-0.588-1.062-0.711-1.611-0.392l-4.814,2.821l-7.65-4.451l7.65-4.406l4.814,2.814c0.15,0.11,0.344,0.175,0.559,0.175
	c0.408,0,0.773-0.192,1.053-0.562c0.322-0.581,0.15-1.352-0.432-1.63l-3.609-2.15l4.275-2.47c0.559-0.322,0.75-1.043,0.432-1.632
	c-0.305-0.569-1.059-0.767-1.635-0.433l-4.297,2.495l-0.064-4.3c-0.012-0.666-0.516-1.202-1.182-1.202s-1.188,0.578-1.182,1.202
	l0.043,5.675l-7.607,4.405V8.812l4.793-2.731c0.559-0.316,0.801-1.056,0.473-1.633c-0.336-0.588-1.025-0.762-1.613-0.433
	L18.521,6.08V1.201C18.521,0.537,17.983,0,17.317,0s-1.182,0.537-1.182,1.201v4.924l-3.781-2.11
	c-0.591-0.324-1.262-0.142-1.591,0.433c-0.337,0.585-0.128,1.306,0.45,1.633l4.922,2.773v8.85l-7.78-4.488L8.399,7.67
	c0.066-0.624-0.494-1.202-1.162-1.202H7.196c-0.623,0-1.176,0.536-1.182,1.202l-0.044,4.172L1.781,9.434
	C1.196,9.094,0.476,9.297,0.17,9.859c-0.319,0.596-0.154,1.299,0.431,1.637l4.232,2.449l-3.697,2.214
	c-0.58,0.278-0.761,1.059-0.407,1.63c0.228,0.373,0.56,0.562,1.009,0.562c0.236,0,0.434-0.061,0.623-0.175l4.836-2.855l7.758,4.447
	L7.196,24.26L2.36,21.397c-0.58-0.337-1.327-0.177-1.632,0.392c-0.319,0.591-0.146,1.302,0.407,1.631l3.697,2.193l-4.234,2.471
	c-0.582,0.338-0.771,1.053-0.429,1.636c0.239,0.402,0.559,0.599,1.011,0.599c0.107,0,0.32-0.062,0.601-0.172l4.189-2.406l0.044,4.17
	c0.006,0.666,0.559,1.179,1.182,1.179h0.041c0.668,0,1.168-0.554,1.162-1.224l-0.044-5.543l7.78-4.445v8.805l-4.922,2.774
	c-0.588,0.329-0.793,1.048-0.45,1.632c0.237,0.406,0.558,0.605,1.009,0.605c0.215,0,0.413-0.038,0.582-0.135l3.781-2.145v5.008
	c0,0.663,0.516,1.18,1.182,1.18s1.203-0.517,1.203-1.18v-4.925l3.652,2.062c0.168,0.097,0.365,0.135,0.559,0.135
	c0.473,0,0.822-0.193,1.055-0.605c0.326-0.578,0.113-1.303-0.473-1.632l-4.793-2.688V21.83l7.607,4.405l-0.043,5.63
	c-0.006,0.67,0.516,1.224,1.182,1.224s1.17-0.513,1.182-1.179l0.064-4.324l4.297,2.52c0.166,0.094,0.387,0.127,0.625,0.127
	c0.451,0,0.781-0.187,1.01-0.56C34.796,29.102,34.571,28.363,34.013,28.041z"/>
</svg>
