<?xml version="1.0" encoding="utf-8"?>
<!-- Generator: Adobe Illustrator 16.0.0, SVG Export Plug-In . SVG Version: 6.00 Build 0)  -->
<!DOCTYPE svg PUBLIC "-//W3C//DTD SVG 1.1//EN" "http://www.w3.org/Graphics/SVG/1.1/DTD/svg11.dtd">
<svg version="1.1" id="Layer_1" xmlns="http://www.w3.org/2000/svg" xmlns:xlink="http://www.w3.org/1999/xlink" x="0px" y="0px"
	 width="42.941px" height="27.195px" viewBox="0 0 42.941 27.195" enable-background="new 0 0 42.941 27.195" xml:space="preserve">
<g>
	<path fill="#494949" d="M35.426,19.895c-2.012,0-3.648,1.64-3.648,3.652c0,2.014,1.637,3.648,3.648,3.648s3.65-1.635,3.65-3.648
		C39.076,21.534,37.438,19.895,35.426,19.895z M35.426,24.62c-0.592,0-1.072-0.482-1.072-1.073c0-0.594,0.48-1.074,1.072-1.074
		c0.594,0,1.074,0.48,1.074,1.074C36.5,24.138,36.02,24.62,35.426,24.62z"/>
	<path fill="#494949" d="M35.078,4.724h-6.307c-0.475,0-0.859,0.386-0.859,0.859v16.745c0,0.477,0.385,0.86,0.859,0.86h0.91
		c0.424,0,0.801-0.308,0.857-0.728c0.336-2.582,2.396-4.184,4.889-4.184s4.551,1.602,4.889,4.184c0.055,0.42,0.43,0.728,0.857,0.728
		h0.908c0.475,0,0.859-0.384,0.859-0.86v-8.372c0-0.204-0.07-0.397-0.199-0.55l-7.006-8.375C35.572,4.836,35.332,4.724,35.078,4.724
		z M29.629,11.596V7.299c0-0.471,0.385-0.859,0.859-0.859h3.783c0.254,0,0.496,0.115,0.66,0.311l3.578,4.293
		c0.467,0.561,0.068,1.412-0.66,1.412h-7.361C30.014,12.455,29.629,12.068,29.629,11.596z"/>
	<path fill="#494949" d="M0.859,23.188h2.199c0.426,0,0.801-0.308,0.855-0.728c0.338-2.582,2.396-4.184,4.889-4.184
		s4.553,1.602,4.891,4.184c0.055,0.423,0.43,0.728,0.857,0.728h10.783c0.475,0,0.859-0.384,0.859-0.857V0.859
		C26.193,0.385,25.809,0,25.334,0H0.859C0.383,0,0,0.385,0,0.859v21.472C0,22.805,0.383,23.188,0.859,23.188z"/>
	<path fill="#494949" d="M8.803,19.895c-2.012,0-3.65,1.64-3.65,3.652c0,2.014,1.639,3.648,3.65,3.648s3.65-1.635,3.65-3.648
		C12.453,21.534,10.814,19.895,8.803,19.895z M8.803,24.62c-0.592,0-1.074-0.482-1.074-1.073c0-0.594,0.482-1.074,1.074-1.074
		s1.074,0.48,1.074,1.074C9.877,24.138,9.395,24.62,8.803,24.62z"/>
</g>
</svg>
